<svg width="859" height="194" viewBox="0 0 859 194" fill="none" xmlns="http://www.w3.org/2000/svg">
<path fill-rule="evenodd" clip-rule="evenodd" d="M0.336467 72.1152C0.0376545 72.8955 -0.0852026 100.42 0.0626418 133.282L0.333343 193.03H17.5124H34.6915L35.2121 175.387L35.7327 157.744L39.56 162.918C48.8534 175.482 60.6174 183.73 76.3899 188.74C84.2142 191.224 100.259 193.748 101.345 192.664C101.62 192.389 101.846 184.761 101.846 175.711C101.846 163.244 101.531 159.258 100.545 159.255C90.5455 159.227 64.6987 156.725 59.1973 155.251C51.3261 153.145 43.0812 148.776 41.5351 145.892C40.5918 144.134 41.332 144.024 53.7489 144.072C67.9482 144.127 73.0977 143.061 83.3594 137.941C89.7521 134.752 93.7262 131.262 97.5389 125.489C100.067 121.661 100.284 120.467 100.284 110.422C100.284 99.7376 100.203 99.3666 96.3811 92.5906C91.9052 84.653 88.0144 81.014 80.1495 77.4052C68.7457 72.1734 65.7066 71.7806 32.3625 71.2226C6.35852 70.7872 0.786247 70.9431 0.336467 72.1152ZM35.9066 100.724C35.5245 101.104 35.2121 107.862 35.2121 115.742V130.067L39.1165 131.148C44.5076 132.643 47.5696 132.517 53.3116 130.565C60.2384 128.209 63.4056 123.279 63.5285 114.665C63.6367 107.024 61.5805 104.167 54.156 101.642C49.4177 100.031 37.2153 99.4165 35.9066 100.724ZM135.571 109.273C119.347 113.255 110.518 122.112 106.461 138.477C102.707 153.615 106.778 172.527 115.741 181.593C123.618 189.559 135.396 193.557 150.93 193.537C170.159 193.513 182.568 187.181 189.143 174.037C191.779 168.768 193.793 160.207 192.661 159.077C192.157 158.574 184.571 158.294 175.802 158.452L159.857 158.74L158.528 163.24C156.678 169.498 154.375 171.728 149.759 171.728C147.131 171.728 145.261 170.998 143.773 169.39C141.212 166.625 138.979 159.696 139.487 156.096L139.848 153.544L166.658 153.267L193.468 152.989L193.456 147.032C193.443 140.897 191.778 133.475 188.959 126.973C186.976 122.404 179.745 115.047 174.78 112.549C164.473 107.361 148.722 106.046 135.571 109.273ZM192.427 109.657C192.427 110.409 193.155 113.811 194.045 117.217C195.54 122.94 198.076 132.75 209.186 175.78C211.459 184.58 213.564 192.178 213.866 192.665C214.794 194.164 257.588 193.769 258.813 192.251C259.39 191.537 260.34 188.848 260.926 186.276C261.511 183.704 263.937 174.118 266.317 164.974C276.813 124.651 279.075 115.931 279.881 112.691C280.481 110.278 280.36 109.101 279.479 108.763C278.788 108.498 271.718 108.413 263.769 108.572L249.317 108.863L248.452 111.98C247.634 114.922 239.76 152.558 238.36 160.213C237.223 166.428 235.567 164.88 233.755 155.906C231.996 147.205 228.02 127.981 225.421 115.617L224.002 108.863L208.214 108.576C195.711 108.349 192.427 108.574 192.427 109.657ZM146.704 130.045C143.46 130.937 140.183 137.236 139.552 143.792L139.063 148.868H149.607H160.151V145.936C160.151 141.871 157.264 133.808 155.143 131.951C152.789 129.89 149.76 129.206 146.704 130.045Z" fill="#0A8DDB"/>
<path d="M457.321 134.385C457.162 102.095 457.289 74.6233 457.601 73.338C458.161 71.0312 458.396 71 475.328 71H492.487V114.954C492.487 147.755 492.804 159.224 493.737 160.155C494.637 161.054 501.765 161.402 519.245 161.402H543.504V177.519V193.637L500.556 193.365L457.609 193.094L457.321 134.385Z" fill="#0A8DDB"/>
<path d="M548.71 85.5827C548.71 79.3897 551.76 75.9835 560.104 72.8621C566.146 70.5999 570.041 70.5698 576.745 72.7301C583.631 74.9507 588.274 79.9581 588.274 85.1681C588.274 94.6281 573.475 100.684 559.691 96.8642C554.034 95.2973 548.71 89.8274 548.71 85.5827Z" fill="#0A8DDB"/>
<path d="M686.143 193.666V132.333V71H703.322H720.501V102.173C720.501 136.168 720.95 138.433 725.635 128.086C730.285 117.82 744.206 107.368 753.233 107.368H756.941V120.733V134.099L751.041 134.791C744.484 135.56 735.958 139.694 732.883 143.595C730.966 146.027 730.959 146.225 732.719 148.213C735.427 151.275 748.348 156.953 754.338 157.714C757.202 158.079 761.066 158.611 762.928 158.896L766.312 159.418V176.149V192.879L758.353 192.208C747.124 191.261 737.312 186.429 729.487 177.995C726.263 174.518 723.624 171.194 723.624 170.608C723.624 170.021 723.039 169.734 722.323 169.971C721.432 170.265 720.857 173.981 720.501 181.747L719.98 193.094L703.061 193.38L686.143 193.666Z" fill="#0A8DDB"/>
<path d="M634.39 110.847C636.219 109.904 638.89 108.775 640.325 108.339C652.164 104.745 666.694 111.95 672.993 124.54C677.649 133.846 678.852 142.964 678.853 168.935L678.855 192.575H661.675H644.496L644.494 165.818C644.493 142.426 644.264 138.604 642.672 135.425C640.556 131.197 636.348 128.844 632.589 129.786L629.95 130.447L629.675 161.77L629.4 193.094L611.96 193.379L594.521 193.664V151.036V108.408H611.798C628.198 108.408 629.102 108.513 629.618 110.486C630.276 112.994 630.237 112.991 634.39 110.847Z" fill="#0A8DDB"/>
<path d="M551.313 193.094L551.041 150.726L550.769 108.358L568.22 108.642L585.671 108.927V151.011V193.094H568.492H551.313Z" fill="#0A8DDB"/>
<path fill-rule="evenodd" clip-rule="evenodd" d="M800.67 109.023C779.434 114.653 770.513 127.005 770.488 150.815C770.464 173.579 779.796 186.992 799.369 192.325C806.984 194.4 823.515 194.584 830.343 192.669C850.121 187.122 858.941 174.281 858.957 151.011C858.973 127.204 850.037 114.09 830.307 108.961C822.69 106.982 808.258 107.012 800.67 109.023ZM803.793 151.011C803.793 143.553 806.581 134.195 809.596 131.528C812.871 128.629 816.235 128.552 819.725 131.292C821.758 132.887 822.827 135.294 824.161 141.277C826.611 152.271 824.973 164.632 820.419 169.511C817.721 172.4 811.135 172.644 808.687 169.944C806.501 167.533 803.793 157.056 803.793 151.011Z" fill="#0A8DDB"/>
<path fill-rule="evenodd" clip-rule="evenodd" d="M363.414 0.450762C354.811 2.77497 346.596 14.1508 337.237 36.7026C336.176 39.2599 335.211 41.666 335.094 42.0497C334.976 42.4335 334.781 42.7472 334.66 42.7472C334.368 42.7472 320.854 44.4982 318.004 44.9052C314.686 45.3792 306.502 47.1926 302.63 48.3119C295.937 50.2465 290.32 52.9526 287.282 55.7064C286.65 56.2792 285.711 57.5954 285.195 58.6314C283.149 62.7404 284.447 68.1111 288.962 74.2099C292.513 79.0086 303.737 89.3045 308.264 91.917C309.078 92.3867 310.508 93.2831 311.443 93.9093C312.377 94.5354 313.872 95.4179 314.764 95.8705C315.656 96.3234 316.386 96.9002 316.386 97.1526C316.386 97.4049 316.038 100.011 315.613 102.944C314.551 110.278 314.541 110.135 316.154 110.613C320.114 111.788 324.465 115.27 324.904 117.619C325.188 119.14 324.826 120.696 323.942 121.75C323.346 122.46 323.182 123.007 323.182 124.279C323.182 125.788 322.295 127.991 321.688 127.991C321.573 127.991 321.171 128.654 320.795 129.463C320.248 130.639 319.689 131.207 318.016 132.283C316.819 133.054 315.228 133.778 314.3 133.975C312.772 134.299 312.679 134.373 312.683 135.262C312.69 136.686 313.488 139.795 314.345 141.74C315.405 144.146 317.604 146.423 319.587 147.167C324.057 148.845 331.87 147.923 339.864 144.775C341.63 144.079 343.125 143.558 343.184 143.618C343.457 143.892 340.868 170.502 340.538 170.81C340.422 170.918 338.312 171.944 335.848 173.089C324.535 178.347 311.496 185.92 309.608 188.327C308.233 190.081 309.376 191.946 312.333 192.772C316.468 193.928 330.763 193.953 338.191 192.817C348.452 191.25 350.195 189.959 350.148 183.961C350.119 180.189 349.184 175.09 348.01 172.298C347.595 171.312 347.597 170.691 348.024 166.563C348.49 162.065 350.366 141.204 350.367 140.509C350.367 140.318 352.157 139.239 354.343 138.11C356.53 136.98 360.516 134.799 363.201 133.263L368.084 130.469L372.896 133.067C375.542 134.496 379.654 136.676 382.033 137.912C384.411 139.147 386.437 140.282 386.534 140.434C386.631 140.586 387.366 143.184 388.169 146.207C388.971 149.231 390.388 154.564 391.318 158.059C392.248 161.554 393.517 166.496 394.138 169.041L395.268 173.67L394.71 176.946C393.977 181.247 393.959 186.299 394.668 187.972C396.103 191.349 399.383 192.601 409.304 193.555C414.737 194.077 427.735 194.16 431.307 193.696C435.783 193.114 438.412 191.901 438.412 190.418C438.412 189.572 436.262 187.752 432.813 185.679C427.359 182.402 414.182 176.067 405.202 172.406C403.333 171.644 401.763 170.981 401.714 170.932C401.664 170.884 401.067 168.7 400.388 166.079C399.709 163.458 398.101 157.435 396.815 152.694C395.529 147.953 394.53 144.021 394.596 143.954C394.662 143.888 396.033 144.331 397.642 144.938C403.388 147.106 410.09 148.386 413.873 148.037C419.021 147.561 422.332 144.613 423.7 139.287C423.96 138.274 424.214 136.681 424.264 135.747L424.356 134.048L423.12 133.87C421.743 133.671 420.494 133.084 420.494 132.634C420.494 132.472 419.973 132.12 419.336 131.853C417.879 131.243 416.587 130.017 416.334 129.005C416.226 128.577 415.694 127.671 415.15 126.992C414.337 125.977 414.157 125.474 414.137 124.159C414.119 122.937 413.901 122.238 413.211 121.191C412.002 119.358 411.937 116.864 413.056 115.225C414.104 113.691 416.622 111.915 419.632 110.588C421.188 109.901 422.168 109.293 422.128 109.038C422.092 108.806 421.566 105.903 420.961 102.586C420.355 99.2688 419.923 96.3872 420.002 96.1826C420.08 95.9781 421.578 94.7961 423.331 93.5559C430.313 88.6164 439.757 79.8949 444.815 73.7158C451.773 65.2165 454.368 58.5768 452.82 53.2334C452.21 51.1271 450.194 48.7443 447.596 47.058C441.205 42.9093 425.94 40.63 401.531 40.1799L397.86 40.1124L395.815 35.6177C387.868 18.1474 381.144 7.77925 374.5 2.75017C371.121 0.19286 367.302 -0.599442 363.414 0.450762ZM383.817 57.2089C382.336 57.7349 379.606 60.0607 378.931 61.3706C378.112 62.9589 378.405 63.799 379.941 64.2714C380.483 64.4382 380.942 64.1914 382.103 63.1102C384.019 61.3266 385.237 60.7259 386.94 60.7259C388.695 60.7259 389.424 61.0095 391.236 62.3976C392.039 63.0126 393.021 63.5157 393.418 63.5157C394.432 63.5157 395.282 62.4878 395.047 61.5467C394.765 60.4209 391.703 57.7693 390.021 57.194C388.234 56.583 385.56 56.5895 383.817 57.2089ZM343.758 59.662C342.09 60.2755 340.021 62.0523 339.061 63.6948C338.296 65.0048 338.281 65.1148 338.758 65.8455C339.598 67.1319 340.902 66.9846 342.159 65.4614C343.321 64.0547 345.167 63.2212 347.141 63.2125C348.676 63.2057 349.444 63.565 352.109 65.5364C353.606 66.6437 355.561 64.9893 354.689 63.3535C354.117 62.281 351.375 60.2166 349.768 59.6475C348.125 59.0659 345.361 59.0728 343.758 59.662ZM399.945 70.6049C395.17 74.8577 386.131 78.287 374.464 80.2715C368.91 81.2163 357.886 81.455 352.37 80.7501C345.03 79.8124 339.272 77.982 336.072 75.5688C335.193 74.9067 334.288 74.3649 334.06 74.3649C333.523 74.3649 332.36 74.9805 332.068 75.4188C330.951 77.0976 334.431 81.9665 339.013 85.1338C341.799 87.0606 343.502 87.9224 347.43 89.3938C363.354 95.3587 382.599 92.7196 396.101 82.7191C402.147 78.2408 406.208 71.4994 404.121 69.4052C403.085 68.3653 402.162 68.6306 399.945 70.6049ZM427.688 92.4455C426.123 93.6681 424.837 94.7589 424.831 94.8693C424.824 94.9799 426.383 95.7257 428.295 96.5267C437.566 100.412 443.664 104.286 443.664 106.293C443.664 107.714 439.812 110.679 435.461 112.607L433.006 113.696L431.77 112.981C429.446 111.637 427.408 111.155 424.848 111.342C423.558 111.436 421.738 111.766 420.803 112.074C418.8 112.735 415.7 114.763 414.798 116.002C413.558 117.705 414.256 120.861 415.872 120.861C416.166 120.861 417.43 120.242 418.682 119.484C421.111 118.014 422.052 117.697 422.256 118.279C422.326 118.481 421.275 119.22 419.891 119.943C417.295 121.298 415.86 122.637 415.86 123.706C415.86 124.753 416.771 126.334 417.589 126.708C418.633 127.185 419.623 127.152 421.604 126.574C423.52 126.015 424.665 126.081 424.665 126.75C424.665 127.47 422.445 128.067 420.417 127.892C418.74 127.748 418.641 127.778 418.641 128.431C418.641 129.184 419.812 130.471 420.497 130.471C420.732 130.471 421.323 130.854 421.811 131.323C422.601 132.081 422.927 132.175 424.763 132.169C427.295 132.16 429.179 131.227 431.9 128.635C434.163 126.481 435.351 124.186 435.561 121.565C435.653 120.409 435.859 119.622 436.068 119.622C436.988 119.622 443.545 116.027 445.563 114.417C449.428 111.332 450.595 109.304 450.408 105.995C450.144 101.301 446.78 97.9377 437.879 93.4685C434.696 91.8702 430.534 90.0172 430.534 90.1985C430.534 90.2118 429.254 91.223 427.688 92.4455ZM301.403 93.2394C294.656 96.4644 289.858 100.077 288.43 103.006C285.697 108.61 289.428 114.296 299.003 119.118C301.292 120.271 301.291 120.27 301.679 122.621C302.115 125.263 305.39 129.612 308.173 131.245C310.725 132.743 314.396 132.84 315.871 131.449C316.261 131.081 316.796 130.781 317.059 130.781C317.903 130.781 319.207 129.523 319.105 128.808C319.021 128.21 318.801 128.141 316.849 128.092C314.448 128.032 312.987 127.605 312.987 126.964C312.987 126.535 314.411 126.448 315.039 126.837C315.21 126.943 316.225 127.171 317.295 127.344C319.549 127.709 320.658 127.329 321.268 125.985C322.267 123.786 321.321 122.225 317.757 120.19C316.493 119.469 315.459 118.772 315.459 118.641C315.459 118.283 318.086 119.486 319.623 120.547C321.282 121.692 321.722 121.71 322.542 120.665C324.246 118.491 322.212 115.262 317.776 113.102C314.021 111.273 309.625 111.3 306.123 113.173L304.331 114.132L302.323 113.276C299.941 112.26 296.511 109.908 295.159 108.362C294.079 107.127 294.086 106.34 295.19 105.086C296.443 103.662 301.133 100.85 306.102 98.5431C308.857 97.2645 311.116 96.1349 311.122 96.0332C311.137 95.8014 305.046 91.7165 304.726 91.7431C304.597 91.7537 303.102 92.427 301.403 93.2394Z" fill="#0A8DDB"/>
</svg>
