<svg width="1080" height="1080" viewBox="0 0 1080 1080" fill="none" xmlns="http://www.w3.org/2000/svg">
<rect width="1080" height="1080" fill="#FDF9F2"/>
<path fill-rule="evenodd" clip-rule="evenodd" d="M522.246 228.454C494.398 235.952 467.807 272.651 437.512 345.404C434.077 353.654 430.954 361.416 430.574 362.654C430.193 363.892 429.561 364.904 429.17 364.904C428.225 364.904 384.479 370.553 375.255 371.866C364.514 373.395 338.023 379.245 325.487 382.856C303.821 389.097 285.64 397.827 275.807 406.711C273.761 408.559 270.721 412.805 269.051 416.147C262.427 429.403 266.63 446.729 281.243 466.404C292.74 481.885 329.071 515.1 343.725 523.528C346.36 525.043 350.99 527.935 354.015 529.955C357.04 531.975 361.878 534.822 364.765 536.282C367.653 537.743 370.015 539.604 370.015 540.418C370.015 541.232 368.89 549.639 367.515 559.101C364.077 582.76 364.044 582.301 369.265 583.843C382.085 587.631 396.167 598.867 397.588 606.443C398.509 611.349 397.336 616.369 394.475 619.769C392.547 622.061 392.015 623.825 392.015 627.93C392.015 632.797 389.144 639.904 387.178 639.904C386.807 639.904 385.506 642.042 384.287 644.654C382.517 648.448 380.708 650.279 375.294 653.751C371.419 656.237 366.267 658.574 363.265 659.208C358.319 660.253 358.017 660.493 358.031 663.36C358.053 667.953 360.634 677.985 363.408 684.258C366.841 692.02 373.96 699.366 380.377 701.766C394.847 707.18 420.137 704.207 446.014 694.049C451.732 691.804 456.57 690.125 456.762 690.317C457.646 691.201 449.264 777.045 448.197 778.039C447.822 778.388 440.99 781.697 433.015 785.391C396.393 802.356 354.188 826.784 348.077 834.552C343.626 840.21 347.326 846.225 356.897 848.891C370.28 852.618 416.555 852.699 440.6 849.037C473.814 843.979 479.457 839.814 479.304 820.466C479.209 808.297 476.182 791.847 472.382 782.839C471.041 779.66 471.046 777.655 472.429 764.339C473.937 749.827 480.009 682.529 480.013 680.287C480.014 679.673 485.806 676.19 492.884 672.547C499.962 668.904 512.865 661.868 521.558 656.911L537.365 647.898L552.94 656.28C561.507 660.89 574.815 667.923 582.516 671.909C590.216 675.894 596.771 679.556 597.084 680.047C597.398 680.537 599.78 688.918 602.378 698.671C604.974 708.424 609.563 725.629 612.572 736.904C615.582 748.179 619.689 764.123 621.701 772.334L625.359 787.265L623.552 797.834C621.18 811.71 621.119 828.007 623.417 833.404C628.059 844.301 638.68 848.338 670.794 851.415C688.38 853.1 730.454 853.369 742.016 851.87C756.507 849.992 765.016 846.08 765.016 841.295C765.016 838.566 758.054 832.695 746.891 826.009C729.237 815.435 686.582 794.998 657.516 783.189C651.466 780.731 646.383 778.591 646.222 778.435C646.06 778.279 644.131 771.233 641.932 762.777C639.733 754.322 634.529 734.891 630.365 719.597C626.202 704.303 622.971 691.616 623.184 691.403C623.397 691.19 627.834 692.618 633.044 694.577C651.644 701.571 673.336 705.698 685.581 704.572C702.245 703.039 712.966 693.526 717.393 676.344C718.235 673.077 719.056 667.938 719.219 664.924L719.516 659.443L715.516 658.869C711.056 658.229 707.016 656.333 707.016 654.882C707.016 654.359 705.328 653.226 703.266 652.364C698.551 650.395 694.366 646.439 693.547 643.175C693.201 641.794 691.477 638.872 689.716 636.682C687.083 633.407 686.501 631.783 686.438 627.542C686.38 623.6 685.673 621.345 683.438 617.968C679.525 612.054 679.317 604.007 682.94 598.72C686.331 593.771 694.481 588.042 704.224 583.76C709.262 581.545 712.433 579.584 712.304 578.76C712.187 578.014 710.487 568.648 708.526 557.947C706.565 547.245 705.168 537.949 705.422 537.289C705.674 536.629 710.524 532.816 716.198 528.815C738.798 512.88 769.37 484.744 785.744 464.81C808.266 437.391 816.665 415.971 811.654 398.733C809.678 391.938 803.154 384.251 794.745 378.811C774.055 365.427 724.644 358.074 645.632 356.622L633.747 356.404L627.128 341.904C601.403 285.544 579.639 252.096 558.132 235.872C547.196 227.622 534.831 225.066 522.246 228.454ZM588.291 411.558C583.498 413.255 574.66 420.758 572.474 424.984C569.825 430.108 570.772 432.818 575.744 434.342C577.499 434.88 578.986 434.084 582.744 430.596C588.944 424.842 592.889 422.904 598.401 422.904C604.082 422.904 606.441 423.819 612.307 428.297C614.907 430.281 618.085 431.904 619.37 431.904C622.652 431.904 625.404 428.588 624.641 425.552C623.73 421.92 613.819 413.366 608.372 411.51C602.589 409.539 593.933 409.56 588.291 411.558ZM458.621 419.472C453.22 421.451 446.522 427.183 443.416 432.482C440.94 436.708 440.889 437.063 442.434 439.42C445.153 443.57 449.373 443.095 453.444 438.181C457.204 433.643 463.181 430.954 469.569 430.926C474.539 430.904 477.024 432.063 485.653 438.423C490.499 441.995 496.827 436.658 494.002 431.381C492.151 427.921 483.277 421.261 478.074 419.425C472.757 417.549 463.809 417.571 458.621 419.472ZM640.498 454.774C625.042 468.494 595.783 479.557 558.016 485.959C540.039 489.007 504.352 489.777 486.496 487.503C462.737 484.478 444.099 478.573 433.739 470.788C430.895 468.652 427.965 466.904 427.226 466.904C425.49 466.904 421.725 468.89 420.781 470.304C417.163 475.72 428.428 491.427 443.259 501.645C452.279 507.861 457.792 510.641 470.507 515.388C522.053 534.631 584.348 526.117 628.055 493.855C647.626 479.408 660.772 457.66 654.016 450.904C650.66 447.549 647.673 448.405 640.498 454.774ZM730.302 525.233C725.234 529.177 721.072 532.696 721.052 533.052C721.031 533.409 726.078 535.815 732.266 538.399C762.277 550.932 782.016 563.431 782.016 569.904C782.016 574.489 769.548 584.054 755.464 590.276L747.516 593.787L743.516 591.482C735.992 587.147 729.395 585.589 721.109 586.193C716.932 586.497 711.04 587.56 708.016 588.555C701.533 590.688 691.497 597.231 688.578 601.227C684.565 606.722 686.823 616.904 692.054 616.904C693.005 616.904 697.096 614.905 701.148 612.461C709.012 607.718 712.06 606.694 712.719 608.574C712.947 609.224 709.542 611.61 705.063 613.94C696.658 618.313 692.016 622.632 692.016 626.08C692.016 629.457 694.962 634.559 697.61 635.765C700.989 637.305 704.196 637.198 710.609 635.334C716.81 633.531 720.516 633.743 720.516 635.9C720.516 638.222 713.329 640.149 706.766 639.586C701.337 639.121 701.016 639.218 701.016 641.325C701.016 643.752 704.808 647.904 707.026 647.904C707.785 647.904 709.698 649.141 711.279 650.654C713.834 653.1 714.892 653.401 720.833 653.381C729.03 653.352 735.128 650.344 743.938 641.983C751.26 635.034 755.108 627.629 755.786 619.173C756.086 615.444 756.751 612.904 757.429 612.904C760.408 612.904 781.633 601.309 788.164 596.113C800.674 586.163 804.451 579.62 803.847 568.944C802.992 553.802 792.102 542.951 763.291 528.533C752.988 523.377 739.516 517.399 739.516 517.984C739.516 518.027 735.369 521.289 730.302 525.233ZM321.515 527.794C299.677 538.198 284.144 549.852 279.521 559.302C270.676 577.381 282.753 595.723 313.747 611.281C321.156 615 321.153 614.996 322.41 622.58C323.821 631.103 334.423 645.135 343.432 650.403C351.69 655.233 363.575 655.546 368.35 651.059C369.612 649.874 371.342 648.904 372.195 648.904C374.925 648.904 379.148 644.846 378.819 642.539C378.545 640.611 377.835 640.387 371.515 640.23C363.742 640.037 359.015 638.66 359.015 636.59C359.015 635.208 363.622 634.925 365.656 636.182C366.209 636.524 369.495 637.26 372.958 637.817C380.256 638.993 383.844 637.769 385.82 633.432C389.053 626.337 385.992 621.303 374.455 614.739C370.363 612.411 367.015 610.162 367.015 609.741C367.015 608.587 375.52 612.467 380.493 615.889C385.863 619.583 387.29 619.641 389.942 616.269C395.459 609.256 388.874 598.841 374.515 591.871C362.362 585.972 348.132 586.059 336.795 592.102L330.993 595.195L324.495 592.433C316.785 589.156 305.682 581.567 301.305 576.581C297.807 572.597 297.83 570.058 301.403 566.012C305.461 561.417 320.644 552.345 336.729 544.904C345.646 540.779 352.957 537.135 352.979 536.807C353.024 536.059 333.31 522.881 332.273 522.967C331.856 523.001 327.015 525.173 321.515 527.794Z" fill="#0A8DDB"/>
</svg>
