<svg width="1080" height="1080" viewBox="0 0 1080 1080" fill="none" xmlns="http://www.w3.org/2000/svg">
<rect width="1080" height="1080" fill="#FDF9F2"/>
<path fill-rule="evenodd" clip-rule="evenodd" d="M45.4842 482.697C45.0542 483.82 44.8774 523.429 45.0901 570.717L45.4797 656.696H70.1996H94.9195L95.6686 631.308L96.4177 605.919L101.925 613.364C115.298 631.444 132.226 643.314 154.921 650.522C166.18 654.098 189.269 657.73 190.831 656.17C191.227 655.774 191.552 644.797 191.552 631.774C191.552 613.834 191.098 608.098 189.679 608.094C175.291 608.053 138.098 604.453 130.182 602.332C118.856 599.301 106.992 593.014 104.767 588.864C103.41 586.334 104.475 586.176 122.342 586.244C142.774 586.324 150.184 584.789 164.95 577.422C174.149 572.833 179.868 567.81 185.354 559.503C188.992 553.996 189.305 552.276 189.305 537.821C189.305 522.446 189.188 521.913 183.688 512.162C177.247 500.739 171.649 495.503 160.331 490.31C143.922 482.781 139.549 482.216 91.5681 481.413C54.1496 480.786 46.1314 481.01 45.4842 482.697ZM457.468 484.364C457.018 486.214 456.836 525.747 457.065 572.213L457.478 656.696L519.278 657.087L581.078 657.477V634.284V611.09H546.17C521.017 611.09 510.761 610.589 509.465 609.296C508.123 607.956 507.667 591.452 507.667 544.251V481H482.976C458.611 481 458.274 481.045 457.468 484.364ZM604.965 483.68C592.958 488.171 588.569 493.073 588.569 501.985C588.569 508.093 596.23 515.964 604.37 518.219C624.204 523.716 645.499 515.001 645.499 501.388C645.499 493.891 638.819 486.685 628.91 483.49C619.263 480.381 613.659 480.424 604.965 483.68ZM786.328 569.259V657.519L810.673 657.108L835.019 656.696L835.768 640.368C836.28 629.192 837.107 623.845 838.39 623.422C839.421 623.081 840.263 623.494 840.263 624.338C840.263 625.182 844.059 629.965 848.699 634.968C859.959 647.106 874.078 654.059 890.236 655.421L901.688 656.387V632.311V608.236L896.819 607.485C894.14 607.074 888.579 606.308 884.459 605.783C875.838 604.689 857.246 596.517 853.349 592.112C850.817 589.25 850.826 588.966 853.586 585.465C858.01 579.852 870.279 573.904 879.714 572.797L888.204 571.801V552.568V533.335H882.868C869.878 533.335 849.846 548.375 843.156 563.148C836.414 578.038 835.768 574.779 835.768 525.859V481H811.048H786.328V569.259ZM96.6679 523.865C96.118 524.413 95.6686 534.138 95.6686 545.477V566.091L101.287 567.647C109.044 569.798 113.45 569.617 121.713 566.807C131.68 563.417 136.238 556.324 136.415 543.928C136.57 532.931 133.611 528.821 122.928 525.187C116.11 522.868 98.5511 521.984 96.6679 523.865ZM240.081 536.169C216.735 541.899 204.03 554.644 198.192 578.194C192.791 599.977 198.649 627.193 211.547 640.238C222.88 651.702 239.829 657.455 262.182 657.426C289.85 657.392 307.707 648.279 317.168 629.366C320.961 621.783 323.859 609.463 322.23 607.838C321.505 607.114 310.59 606.71 297.97 606.938L275.027 607.352L273.114 613.828C270.452 622.834 267.138 626.043 260.496 626.043C256.715 626.043 254.024 624.992 251.882 622.679C248.198 618.7 244.984 608.728 245.715 603.548L246.235 599.875L284.813 599.476L323.391 599.077L323.373 590.504C323.355 581.676 320.96 570.995 316.903 561.639C314.05 555.065 303.644 544.476 296.501 540.882C281.669 533.417 259.004 531.524 240.081 536.169ZM720.399 534.732C718.333 535.36 714.491 536.984 711.858 538.341C705.882 541.426 705.939 541.431 704.992 537.821C704.249 534.981 702.949 534.83 679.349 534.83H654.489V596.173V657.516L679.583 657.106L704.677 656.696L705.074 611.621L705.47 566.545L709.266 565.594C714.676 564.238 720.73 567.625 723.776 573.709C726.067 578.283 726.396 583.783 726.398 617.445L726.401 655.949H751.121H775.841L775.839 621.931C775.838 584.558 774.106 571.437 767.406 558.045C758.342 539.928 737.435 529.559 720.399 534.732ZM951.128 535.716C920.569 543.817 907.733 561.593 907.697 595.856C907.662 628.613 921.091 647.915 949.255 655.59C960.213 658.576 984.001 658.841 993.826 656.085C1022.28 648.103 1034.98 629.624 1035 596.137C1035.02 561.879 1022.17 543.008 993.773 535.627C982.814 532.779 962.046 532.822 951.128 535.716ZM321.893 536.72C321.893 537.803 322.94 542.699 324.221 547.6C326.373 555.835 330.022 569.952 346.009 631.873C349.28 644.537 352.309 655.47 352.744 656.172C354.079 658.328 415.657 657.76 417.42 655.575C418.25 654.548 419.618 650.678 420.46 646.977C421.302 643.276 424.793 629.482 428.217 616.324C443.32 558.297 446.576 545.749 447.736 541.087C448.599 537.615 448.425 535.92 447.157 535.434C446.163 535.053 435.99 534.931 424.551 535.159L403.755 535.578L402.51 540.064C401.334 544.297 390.003 598.456 387.988 609.472C386.352 618.416 383.97 616.188 381.362 603.274C378.831 590.753 373.11 563.09 369.371 545.297L367.328 535.578L344.61 535.165C326.619 534.838 321.893 535.162 321.893 536.72ZM591.923 595.728L592.314 656.696H617.034H641.754V596.137V535.578L616.643 535.168L591.532 534.759L591.923 595.728ZM256.101 566.059C251.433 567.342 246.716 576.407 245.808 585.842L245.106 593.147H260.278H275.45V588.927C275.45 583.077 271.295 571.474 268.244 568.802C264.856 565.837 260.498 564.853 256.101 566.059ZM963.971 568.101C959.633 571.939 955.622 585.406 955.622 596.137C955.622 604.837 959.519 619.914 962.664 623.383C966.186 627.268 975.663 626.918 979.545 622.759C986.098 615.739 988.456 597.951 984.929 582.131C983.01 573.521 981.472 570.056 978.547 567.761C973.525 563.818 968.685 563.93 963.971 568.101Z" fill="#0A8DDB"/>
</svg>
