<svg width="548" height="626" viewBox="0 0 548 626" fill="none" xmlns="http://www.w3.org/2000/svg">
<path fill-rule="evenodd" clip-rule="evenodd" d="M256.246 1.45418C228.398 8.95218 201.807 45.6512 171.512 118.404C168.077 126.654 164.954 134.416 164.574 135.654C164.193 136.892 163.561 137.904 163.17 137.904C162.225 137.904 118.479 143.553 109.255 144.866C98.5135 146.395 72.0235 152.245 59.4875 155.856C37.8215 162.097 19.6405 170.827 9.8075 179.711C7.7615 181.559 4.72148 185.805 3.05148 189.147C-3.57252 202.403 0.630486 219.729 15.2435 239.404C26.7405 254.885 63.0715 288.1 77.7255 296.528C80.3605 298.043 84.9905 300.935 88.0155 302.955C91.0405 304.975 95.8785 307.822 98.7655 309.282C101.653 310.743 104.015 312.604 104.015 313.418C104.015 314.232 102.89 322.639 101.515 332.101C98.0775 355.76 98.0445 355.301 103.265 356.843C116.085 360.631 130.167 371.867 131.588 379.443C132.509 384.349 131.336 389.369 128.475 392.769C126.547 395.061 126.015 396.825 126.015 400.93C126.015 405.797 123.144 412.904 121.178 412.904C120.807 412.904 119.506 415.042 118.287 417.654C116.517 421.448 114.708 423.279 109.294 426.751C105.419 429.237 100.267 431.574 97.2655 432.208C92.3195 433.253 92.0165 433.493 92.0305 436.36C92.0525 440.953 94.6345 450.985 97.4085 457.258C100.841 465.02 107.96 472.366 114.377 474.766C128.847 480.18 154.137 477.207 180.014 467.049C185.732 464.804 190.57 463.125 190.762 463.317C191.646 464.201 183.264 550.045 182.197 551.039C181.822 551.388 174.99 554.697 167.015 558.391C130.393 575.356 88.1875 599.784 82.0775 607.552C77.6265 613.21 81.3265 619.225 90.8975 621.891C104.28 625.618 150.555 625.699 174.6 622.037C207.814 616.979 213.457 612.814 213.304 593.466C213.209 581.297 210.182 564.847 206.382 555.839C205.041 552.66 205.046 550.655 206.429 537.339C207.937 522.827 214.009 455.529 214.013 453.287C214.014 452.673 219.806 449.19 226.884 445.547C233.962 441.904 246.865 434.868 255.558 429.911L271.365 420.898L286.94 429.28C295.507 433.89 308.815 440.923 316.516 444.909C324.216 448.894 330.771 452.556 331.084 453.047C331.398 453.537 333.78 461.918 336.378 471.671C338.974 481.424 343.563 498.629 346.572 509.904C349.582 521.179 353.689 537.123 355.701 545.334L359.359 560.265L357.552 570.834C355.18 584.71 355.119 601.007 357.417 606.404C362.059 617.301 372.68 621.338 404.794 624.415C422.38 626.1 464.454 626.369 476.016 624.87C490.507 622.992 499.016 619.08 499.016 614.295C499.016 611.566 492.054 605.695 480.891 599.009C463.237 588.435 420.582 567.998 391.516 556.189C385.466 553.731 380.383 551.591 380.222 551.435C380.06 551.279 378.131 544.233 375.932 535.777C373.733 527.322 368.529 507.891 364.365 492.597C360.202 477.303 356.971 464.616 357.184 464.403C357.397 464.19 361.834 465.618 367.044 467.577C385.644 474.571 407.336 478.698 419.581 477.572C436.245 476.039 446.966 466.526 451.393 449.344C452.235 446.077 453.056 440.938 453.219 437.924L453.516 432.443L449.516 431.869C445.056 431.229 441.016 429.333 441.016 427.882C441.016 427.359 439.328 426.226 437.266 425.364C432.551 423.395 428.366 419.439 427.547 416.175C427.201 414.794 425.477 411.872 423.716 409.682C421.083 406.407 420.501 404.783 420.438 400.542C420.38 396.6 419.673 394.345 417.438 390.968C413.525 385.054 413.317 377.007 416.94 371.72C420.331 366.771 428.481 361.042 438.224 356.76C443.262 354.545 446.433 352.584 446.304 351.76C446.187 351.014 444.487 341.648 442.526 330.947C440.565 320.245 439.168 310.949 439.422 310.289C439.674 309.629 444.524 305.816 450.198 301.815C472.798 285.88 503.37 257.744 519.744 237.81C542.266 210.391 550.665 188.971 545.654 171.733C543.678 164.938 537.154 157.251 528.745 151.811C508.055 138.427 458.644 131.074 379.632 129.622L367.747 129.404L361.128 114.904C335.403 58.5442 313.639 25.0962 292.132 8.87218C281.196 0.622175 268.831 -1.93382 256.246 1.45418ZM322.291 184.558C317.498 186.255 308.66 193.758 306.474 197.984C303.825 203.108 304.772 205.818 309.744 207.342C311.499 207.88 312.986 207.084 316.744 203.596C322.944 197.842 326.889 195.904 332.401 195.904C338.082 195.904 340.441 196.819 346.307 201.297C348.907 203.281 352.085 204.904 353.37 204.904C356.652 204.904 359.404 201.588 358.641 198.552C357.73 194.92 347.819 186.366 342.372 184.51C336.589 182.539 327.933 182.56 322.291 184.558ZM192.621 192.472C187.22 194.451 180.522 200.183 177.416 205.482C174.94 209.708 174.889 210.063 176.434 212.42C179.153 216.57 183.373 216.095 187.444 211.181C191.204 206.643 197.181 203.954 203.569 203.926C208.539 203.904 211.024 205.063 219.653 211.423C224.499 214.995 230.827 209.658 228.002 204.381C226.151 200.921 217.277 194.261 212.074 192.425C206.757 190.549 197.809 190.571 192.621 192.472ZM374.498 227.774C359.042 241.494 329.783 252.557 292.016 258.959C274.039 262.007 238.352 262.777 220.496 260.503C196.737 257.478 178.099 251.573 167.739 243.788C164.895 241.652 161.965 239.904 161.226 239.904C159.49 239.904 155.725 241.89 154.781 243.304C151.163 248.72 162.428 264.427 177.259 274.645C186.279 280.861 191.792 283.641 204.507 288.388C256.053 307.631 318.348 299.117 362.055 266.855C381.626 252.408 394.772 230.66 388.016 223.904C384.66 220.549 381.673 221.405 374.498 227.774ZM464.302 298.233C459.234 302.177 455.072 305.696 455.052 306.052C455.031 306.409 460.078 308.815 466.266 311.399C496.277 323.932 516.016 336.431 516.016 342.904C516.016 347.489 503.548 357.054 489.464 363.276L481.516 366.787L477.516 364.482C469.992 360.147 463.395 358.589 455.109 359.193C450.932 359.497 445.04 360.56 442.016 361.555C435.533 363.688 425.497 370.231 422.578 374.227C418.565 379.722 420.823 389.904 426.054 389.904C427.005 389.904 431.096 387.905 435.148 385.461C443.012 380.718 446.06 379.694 446.719 381.574C446.947 382.224 443.542 384.61 439.063 386.94C430.658 391.313 426.016 395.632 426.016 399.08C426.016 402.457 428.962 407.559 431.61 408.765C434.989 410.305 438.196 410.198 444.609 408.334C450.81 406.531 454.516 406.743 454.516 408.9C454.516 411.222 447.329 413.149 440.766 412.586C435.337 412.121 435.016 412.218 435.016 414.325C435.016 416.752 438.808 420.904 441.026 420.904C441.785 420.904 443.698 422.141 445.279 423.654C447.834 426.1 448.892 426.401 454.833 426.381C463.03 426.352 469.128 423.344 477.938 414.983C485.26 408.034 489.108 400.629 489.786 392.173C490.086 388.444 490.751 385.904 491.429 385.904C494.408 385.904 515.633 374.309 522.164 369.113C534.674 359.163 538.451 352.62 537.847 341.944C536.992 326.802 526.102 315.951 497.291 301.533C486.988 296.377 473.516 290.399 473.516 290.984C473.516 291.027 469.369 294.289 464.302 298.233ZM55.5155 300.794C33.6775 311.198 18.1445 322.852 13.5215 332.302C4.67649 350.381 16.7535 368.723 47.7475 384.281C55.1565 388 55.1535 387.996 56.4095 395.58C57.8215 404.103 68.4235 418.135 77.4325 423.403C85.6905 428.233 97.5745 428.546 102.35 424.059C103.612 422.874 105.342 421.904 106.195 421.904C108.925 421.904 113.148 417.846 112.819 415.539C112.545 413.611 111.835 413.387 105.515 413.23C97.7425 413.037 93.0155 411.66 93.0155 409.59C93.0155 408.208 97.6225 407.925 99.6565 409.182C100.209 409.524 103.495 410.26 106.958 410.817C114.256 411.993 117.844 410.769 119.82 406.432C123.053 399.337 119.992 394.303 108.455 387.739C104.363 385.411 101.015 383.162 101.015 382.741C101.015 381.587 109.52 385.467 114.493 388.889C119.863 392.583 121.29 392.641 123.942 389.269C129.459 382.256 122.874 371.841 108.515 364.871C96.3625 358.972 82.1325 359.059 70.7955 365.102L64.9935 368.195L58.4955 365.433C50.7855 362.156 39.6825 354.567 35.3055 349.581C31.8075 345.597 31.8305 343.058 35.4035 339.012C39.4615 334.417 54.6435 325.345 70.7285 317.904C79.6455 313.779 86.9575 310.135 86.9785 309.807C87.0245 309.059 67.3105 295.881 66.2735 295.967C65.8565 296.001 61.0155 298.173 55.5155 300.794Z" fill="#0A8DDB"/>
</svg>
