<svg width="990" height="177" viewBox="0 0 990 177" fill="none" xmlns="http://www.w3.org/2000/svg">
<path fill-rule="evenodd" clip-rule="evenodd" d="M0.48416 1.69715C0.0541831 2.82011 -0.122603 42.4288 0.0901386 89.7173L0.479665 175.696H25.1996H49.9195L50.6686 150.308L51.4177 124.919L56.925 132.364C70.2977 150.444 87.2256 162.314 109.921 169.522C121.18 173.098 144.269 176.73 145.831 175.17C146.227 174.774 146.552 163.797 146.552 150.774C146.552 132.834 146.098 127.098 144.679 127.094C130.291 127.053 93.0985 123.453 85.1821 121.332C73.8559 118.301 61.9918 112.014 59.767 107.864C58.4097 105.334 59.4749 105.176 77.3421 105.244C97.7743 105.324 105.184 103.789 119.95 96.4222C129.149 91.8332 134.868 86.8105 140.354 78.5027C143.992 72.9955 144.305 71.2759 144.305 56.821C144.305 41.4464 144.188 40.9126 138.688 31.1618C132.247 19.7393 126.649 14.5028 115.331 9.30967C98.9219 1.78089 94.5487 1.21567 46.5681 0.412698C9.14962 -0.213828 1.13137 0.0104673 0.48416 1.69715ZM412.468 3.3644C412.018 5.21407 411.836 44.7465 412.065 91.2126L412.478 175.696L474.278 176.087L536.078 176.477V153.284V130.09H501.17C476.017 130.09 465.761 129.589 464.465 128.296C463.123 126.956 462.667 110.452 462.667 63.2507V0H437.976C413.611 0 413.274 0.0448586 412.468 3.3644ZM559.965 2.67956C547.958 7.1714 543.569 12.073 543.569 20.9849C543.569 27.0931 551.23 34.9643 559.37 37.2192C579.204 42.7159 600.499 34.0014 600.499 20.3883C600.499 12.8909 593.819 5.68509 583.91 2.48966C574.263 -0.619048 568.659 -0.575686 559.965 2.67956ZM741.328 88.2594V176.519L765.673 176.108L790.019 175.696L790.768 159.368C791.28 148.192 792.107 142.845 793.39 142.422C794.421 142.081 795.263 142.494 795.263 143.338C795.263 144.182 799.059 148.965 803.699 153.968C814.959 166.106 829.078 173.059 845.236 174.421L856.688 175.387V151.311V127.236L851.819 126.485C849.14 126.074 843.579 125.308 839.459 124.783C830.838 123.689 812.246 115.517 808.349 111.112C805.817 108.25 805.826 107.966 808.586 104.465C813.01 98.852 825.279 92.9038 834.714 91.7973L843.204 90.8014V71.5675V52.3351H837.868C824.878 52.3351 804.846 67.3747 798.156 82.1482C791.414 97.0383 790.768 93.7785 790.768 44.8587V0H766.048H741.328V88.2594ZM51.6679 42.8654C51.118 43.4127 50.6686 53.1381 50.6686 64.4769V85.0909L56.2868 86.6475C64.0443 88.7977 68.4505 88.6168 76.7129 85.8071C86.6803 82.4173 91.2377 75.3237 91.4145 62.9277C91.5703 51.9314 88.6114 47.8208 77.9279 44.1873C71.1097 41.8681 53.5511 40.9844 51.6679 42.8654ZM195.081 55.1687C171.735 60.8986 159.03 73.6445 153.192 97.1938C147.791 118.977 153.649 146.193 166.547 159.238C177.88 170.702 194.829 176.455 217.182 176.426C244.85 176.392 262.707 167.279 272.168 148.366C275.961 140.783 278.859 128.463 277.23 126.838C276.505 126.114 265.59 125.71 252.97 125.938L230.027 126.352L228.114 132.828C225.452 141.834 222.138 145.043 215.496 145.043C211.715 145.043 209.024 143.992 206.882 141.679C203.198 137.7 199.984 127.728 200.715 122.548L201.235 118.875L239.813 118.476L278.391 118.077L278.373 109.504C278.355 100.676 275.96 89.9954 271.903 80.6394C269.05 74.0646 258.644 63.4765 251.501 59.8818C236.669 52.4173 214.004 50.5243 195.081 55.1687ZM675.399 53.7317C673.333 54.3597 669.491 55.9836 666.858 57.3413C660.882 60.4261 660.939 60.4306 659.992 56.821C659.249 53.9814 657.949 53.8304 634.349 53.8304H609.489V115.173V176.516L634.583 176.106L659.677 175.696L660.074 130.621L660.47 85.5455L664.266 84.5945C669.676 83.2382 675.73 86.6251 678.776 92.7094C681.067 97.2835 681.396 102.783 681.398 136.445L681.401 174.949H706.121H730.841L730.839 140.931C730.838 103.558 729.106 90.4366 722.406 77.0447C713.342 58.9278 692.435 48.5595 675.399 53.7317ZM906.128 54.7156C875.569 62.8171 862.733 80.5931 862.697 114.856C862.662 147.613 876.091 166.915 904.255 174.59C915.213 177.576 939.001 177.841 948.826 175.085C977.285 167.103 989.977 148.624 990 115.137C990.022 80.8787 977.165 62.0081 948.773 54.6274C937.814 51.7789 917.046 51.8222 906.128 54.7156ZM276.893 55.7204C276.893 56.803 277.94 61.6986 279.221 66.6002C281.373 74.8347 285.022 88.9517 301.009 150.873C304.28 163.537 307.309 174.47 307.744 175.172C309.079 177.328 370.657 176.76 372.42 174.575C373.25 173.548 374.618 169.678 375.46 165.977C376.302 162.276 379.793 148.482 383.217 135.324C398.32 77.2974 401.576 64.749 402.736 60.0867C403.599 56.6146 403.425 54.9205 402.157 54.4345C401.163 54.0532 390.99 53.9306 379.551 54.1594L358.755 54.578L357.51 59.0639C356.334 63.2971 345.003 117.456 342.988 128.472C341.352 137.416 338.97 135.188 336.362 122.274C333.831 109.753 328.11 82.0899 324.371 64.2974L322.328 54.578L299.61 54.1653C281.619 53.8379 276.893 54.1623 276.893 55.7204ZM546.923 114.728L547.314 175.696H572.034H596.754V115.137V54.578L571.643 54.1683L546.532 53.7586L546.923 114.728ZM211.101 85.0595C206.433 86.3425 201.716 95.4069 200.808 104.842L200.106 112.147H215.278H230.45V107.927C230.45 102.077 226.295 90.4739 223.244 87.8019C219.856 84.8367 215.498 83.8528 211.101 85.0595ZM918.971 87.1006C914.633 90.939 910.622 104.406 910.622 115.137C910.622 123.837 914.519 138.914 917.664 142.383C921.186 146.268 930.663 145.918 934.545 141.759C941.098 134.739 943.456 116.951 939.929 101.131C938.01 92.521 936.472 89.0564 933.547 86.7611C928.525 82.8181 923.685 82.9302 918.971 87.1006Z" fill="#0A8DDB"/>
</svg>
